<?xml version="1.0" standalone="no"?><!DOCTYPE svg PUBLIC "-//W3C//DTD SVG 1.1//EN" "http://www.w3.org/Graphics/SVG/1.1/DTD/svg11.dtd"><svg t="1730771239294" class="icon" viewBox="0 0 1024 1024" version="1.1" xmlns="http://www.w3.org/2000/svg" p-id="4262" xmlns:xlink="http://www.w3.org/1999/xlink" width="200" height="200"><path d="M921.057882 758.482824l-94.569411-188.355765-188.355765 94.448941 26.985412 53.910588 112.700235-56.560941A270.516706 270.516706 0 0 1 542.117647 877.869176V421.647059h90.352941V361.411765H542.117647V298.104471c68.668235-13.974588 120.470588-74.752 120.470588-147.516236C662.588235 67.523765 595.004235 0 512 0S361.411765 67.523765 361.411765 150.588235c0 72.764235 51.802353 133.541647 120.470588 147.516236V361.411765H391.529412v60.235294H481.882353v456.222117a270.516706 270.516706 0 0 1-235.640471-215.642352l112.037647 56.259764 26.985412-53.910588-188.355765-94.448941-94.569411 188.355765 53.850353 27.045647 39.213176-78.185412A331.896471 331.896471 0 0 0 512 941.176471a331.896471 331.896471 0 0 0 316.355765-232.929883l38.851764 77.281883 53.850353-27.045647zM421.647059 150.588235C421.647059 100.773647 462.185412 60.235294 512 60.235294s90.352941 40.538353 90.352941 90.352941S561.814588 240.941176 512 240.941176 421.647059 200.402824 421.647059 150.588235z" p-id="4263"></path></svg>