<?xml version="1.0" standalone="no"?><!DOCTYPE svg PUBLIC "-//W3C//DTD SVG 1.1//EN" "http://www.w3.org/Graphics/SVG/1.1/DTD/svg11.dtd"><svg t="1737862178022" class="icon" viewBox="0 0 1024 1024" version="1.1" xmlns="http://www.w3.org/2000/svg" p-id="7193" xmlns:xlink="http://www.w3.org/1999/xlink" width="200" height="200"><path d="M41.724 1002.197c0 9.686-8.478 17.514-18.966 17.514-10.493 0-18.966-7.828-18.966-17.514V18.508C3.791 8.822 12.264 1 22.757 1c10.489 0 18.966 7.822 18.966 17.508v983.689h0.001z" fill="#525151" p-id="7194"></path><path d="M1005.484 982.045c9.687 0 17.516 8.477 17.516 18.967 0 10.496-7.829 18.965-17.516 18.965H21.796c-9.686 0-17.508-8.469-17.508-18.965 0-10.49 7.822-18.967 17.508-18.967h983.688z" fill="#525151" p-id="7195"></path><path d="M432.845 916.275H329.987V553.606h102.858v362.669z" fill="#FFFFFF" p-id="7196"></path><path d="M746.954 203.723H42.877v126.38h704.077v-126.38zM49.235 320.113v-107.22H737.44v107.22H49.235z m650.258 368.715h-656.5V815.2h656.5V688.828zM49.369 805.211V698.006h640.604v107.205H49.369z" fill="#525151" p-id="7197"></path><path d="M49.139 700.859H504.29v101.185H49.139V700.859z m-0.113-485.098h502.418v101.178H49.026V215.761zM851.744 441.493H42.993v126.379h808.751V441.493zM49.369 557.883V450.656h792.862v107.227H49.369z" fill="#525151" p-id="7198"></path><path d="M49.139 453.523h646.905v101.186H49.139V453.523z" fill="#525151" p-id="7199"></path></svg>