<?xml version="1.0" standalone="no"?><!DOCTYPE svg PUBLIC "-//W3C//DTD SVG 1.1//EN" "http://www.w3.org/Graphics/SVG/1.1/DTD/svg11.dtd"><svg t="1730692238465" class="icon" viewBox="0 0 1024 1024" version="1.1" xmlns="http://www.w3.org/2000/svg" p-id="10468" xmlns:xlink="http://www.w3.org/1999/xlink" width="200" height="200"><path d="M1024 0v960a64 64 0 0 1-64 64H0L1024 0z m-100.416 512h-38.368a17.472 17.472 0 0 0-13.76 6.72l-226.368 286.72-108.544-137.536a17.568 17.568 0 0 0-13.76-6.688h-38.4a4.384 4.384 0 0 0-3.456 7.072l150.4 190.528a17.6 17.6 0 0 0 27.584 0l268.16-339.776a4.352 4.352 0 0 0-3.488-7.04z" fill="#2D3040" p-id="10469"></path></svg>