<?xml version="1.0" standalone="no"?><!DOCTYPE svg PUBLIC "-//W3C//DTD SVG 1.1//EN" "http://www.w3.org/Graphics/SVG/1.1/DTD/svg11.dtd"><svg t="1731033647620" class="icon" viewBox="0 0 1024 1024" version="1.1" xmlns="http://www.w3.org/2000/svg" p-id="4285" xmlns:xlink="http://www.w3.org/1999/xlink" width="200" height="200"><path d="M783.872 111.402667a40.533333 40.533333 0 0 0-57.344 0L603.306667 234.666667H405.333333V168.533333A40.533333 40.533333 0 0 0 364.8 128h-196.266667a40.533333 40.533333 0 0 0-40.533333 40.533333v196.266667c0 22.4 18.133333 40.533333 40.533333 40.533333h196.266667a40.533333 40.533333 0 0 0 40.533333-40.533333V298.666667h203.776L725.333333 414.890667V618.666667h-66.133333a40.533333 40.533333 0 0 0-40.533333 40.533333V725.333333H401.621333A138.709333 138.709333 0 0 0 128 757.333333a138.666667 138.666667 0 0 0 273.621333 32H618.666667v66.133334c0 22.4 18.133333 40.533333 40.533333 40.533333h196.266667a40.533333 40.533333 0 0 0 40.533333-40.533333v-196.266667a40.533333 40.533333 0 0 0-40.533333-40.533333H789.333333V410.666667l118.229334-118.229334a40.533333 40.533333 0 0 0 0-57.344l-123.733334-123.690666z m-119.168 152.32l90.496-90.453334 90.538667 90.453334L755.2 354.304 664.746667 263.765333zM192 341.333333V192H341.333333V341.333333H192zM682.666667 682.666667h149.333333v149.333333H682.666667V682.666667zM192 757.333333a74.666667 74.666667 0 1 1 149.333333 0 74.666667 74.666667 0 0 1-149.333333 0z" p-id="4286"></path></svg>