<?xml version="1.0" standalone="no"?><!DOCTYPE svg PUBLIC "-//W3C//DTD SVG 1.1//EN" "http://www.w3.org/Graphics/SVG/1.1/DTD/svg11.dtd"><svg t="1734341958771" class="icon" viewBox="0 0 1024 1024" version="1.1" xmlns="http://www.w3.org/2000/svg" p-id="4569" xmlns:xlink="http://www.w3.org/1999/xlink" width="200" height="200"><path d="M206.791111 76.572444c38.058667 0 68.892444 30.890667 68.892445 68.949334v2.844444h428.828444V217.315556H275.683556v4.835555c0 38.058667-30.833778 68.892444-68.892445 68.892445h-15.36v398.222222h15.36c38.058667 0 68.892444 30.890667 68.892445 68.949333v4.721778h428.828444v68.949333H275.683556v2.901334c0 38.115556-30.833778 68.949333-68.892445 68.949333H130.161778c-38.058667 0-68.892444-30.890667-68.892445-68.949333v-76.572445c0-38.115556 30.833778-68.949333 68.892445-68.949333h-7.623111v-398.222222h7.623111c-38.058667 0-68.892444-30.833778-68.892445-68.892445V145.521778c0-38.115556 30.833778-68.949333 68.892445-68.949334h76.629333z m566.670222 214.471112c-38.058667 0-68.892444-30.890667-68.892444-68.949334V145.521778c0-38.115556 30.833778-68.949333 68.892444-68.949334h76.572445c38.115556 0 68.949333 30.890667 68.949333 68.949334v76.572444c0 38.058667-30.890667 68.892444-68.949333 68.892445h7.68v398.222222h-7.68c38.115556 0 68.949333 30.890667 68.949333 68.949333v76.572445c0 38.115556-30.890667 68.949333-68.949333 68.949333h-76.572445c-38.058667 0-68.892444-30.890667-68.892444-68.949333v-76.572445c0-38.115556 30.833778-68.949333 68.892444-68.949333h15.303111v-398.222222h-15.303111z m-566.670222 467.057777H130.161778v76.629334h76.629333v-76.572445z m643.242667 0h-76.572445v76.629334h76.572445v-76.572445z m-241.208889-424.96a34.474667 34.474667 0 0 1 0 68.892445h-84.764445v237.397333a34.474667 34.474667 0 0 1-68.835555 0L455.111111 402.033778H371.427556a34.474667 34.474667 0 0 1 0-68.892445h237.397333zM206.791111 145.521778H130.161778v76.572444h76.629333V145.521778z m643.242667 0h-76.572445v76.572444h76.572445V145.521778z" fill="#262626" p-id="4570"></path></svg>