<?xml version="1.0" standalone="no"?><!DOCTYPE svg PUBLIC "-//W3C//DTD SVG 1.1//EN" "http://www.w3.org/Graphics/SVG/1.1/DTD/svg11.dtd"><svg t="1737864342533" class="icon" viewBox="0 0 1024 1024" version="1.1" xmlns="http://www.w3.org/2000/svg" p-id="5422" xmlns:xlink="http://www.w3.org/1999/xlink" width="200" height="200"><path d="M841.728 752.128v119.808c16.384 0 30.208-13.312 30.208-30.208v-59.904c0-16.384-13.312-29.696-30.208-29.696zM497.152 452.096v119.808h345.088c16.384 0 30.208-13.312 30.208-30.208V481.792c0-16.384-13.312-30.208-30.208-30.208-0.512 0.512-345.088 0.512-345.088 0.512z m150.016-300.032v119.808h195.072c16.384 0 30.208-13.312 30.208-30.208V182.272c0-16.384-13.312-30.208-30.208-30.208h-195.072zM182.272 92.16h659.968c49.664 0 90.112 40.448 90.112 90.112v59.904c0 49.664-40.448 90.112-90.112 90.112H182.272C132.608 332.288 92.16 291.84 92.16 242.176V182.272C92.16 132.608 132.608 92.16 182.272 92.16z m0 300.032h659.968c49.664 0 90.112 40.448 90.112 90.112v59.904c0 49.664-40.448 90.112-90.112 90.112H182.272c-49.664 0-90.112-40.448-90.112-90.112V481.792c0-49.664 40.448-89.6 90.112-89.6z m0 299.52h659.968c49.664 0 90.112 40.448 90.112 90.112v59.904c0 49.664-40.448 90.112-90.112 90.112H182.272c-49.664 0-90.112-40.448-90.112-90.112v-59.904c0-49.664 40.448-90.112 90.112-90.112z" fill="#333333" p-id="5423"></path></svg>