<?xml version="1.0" standalone="no"?><!DOCTYPE svg PUBLIC "-//W3C//DTD SVG 1.1//EN" "http://www.w3.org/Graphics/SVG/1.1/DTD/svg11.dtd"><svg t="1735034187348" class="icon" viewBox="0 0 1024 1024" version="1.1" xmlns="http://www.w3.org/2000/svg" p-id="5206" xmlns:xlink="http://www.w3.org/1999/xlink" width="200" height="200"><path d="M716.8 355.84H307.2a117.76 117.76 0 0 0-117.76 117.76v332.8a117.76 117.76 0 0 0 117.76 117.76h409.6a117.76 117.76 0 0 0 117.76-117.76v-332.8a117.76 117.76 0 0 0-117.76-117.76z m-409.6 30.72h409.6a87.04 87.04 0 0 1 87.04 87.04v332.8a87.04 87.04 0 0 1-87.04 87.04H307.2a87.04 87.04 0 0 1-87.04-87.04v-332.8a87.04 87.04 0 0 1 87.04-87.04z" fill="#8C929A" p-id="5207"></path><path d="M280.2944 741.632l222.8224-270.2336a34.56 34.56 0 0 1 55.3216 41.2928l-1.9968 2.688-222.8224 270.2336a34.56 34.56 0 0 1-55.3216-41.2928l1.9968-2.688zM473.984 767.0528l225.3056-268.3904a34.56 34.56 0 0 1 54.9632 41.7792l-2.0224 2.6624-225.3056 268.3904a34.56 34.56 0 0 1-54.9632-41.8048l2.0224-2.6368z" fill="#4262E8" p-id="5208"></path><path d="M301.9776 477.3632a34.56 34.56 0 0 1 45.9008-7.3472l2.688 1.9456 364.7744 291.8912a34.56 34.56 0 0 1-40.4992 55.9104l-2.688-1.9456-364.7744-291.8912a34.56 34.56 0 0 1-5.376-48.5632z" fill="#4262E8" p-id="5209"></path><path d="M737.7408 193.792l-60.928 67.328a14.848 14.848 0 0 1-22.4512 0l-60.928-67.328a18.8672 18.8672 0 0 1 0-24.832 15.1552 15.1552 0 0 1 11.264-5.12h121.8304c8.7552 0 15.872 7.8592 15.872 17.536a18.5344 18.5344 0 0 1-4.6592 12.416z" fill="#4262E8" p-id="5210"></path><path d="M742.4 99.84H281.6a92.16 92.16 0 0 0-92.16 92.16V230.4a92.16 92.16 0 0 0 92.16 92.16h460.8A92.16 92.16 0 0 0 834.56 230.4V192A92.16 92.16 0 0 0 742.4 99.84zM281.6 130.56h460.8a61.44 61.44 0 0 1 61.44 61.44V230.4a61.44 61.44 0 0 1-61.44 61.44H281.6A61.44 61.44 0 0 1 220.16 230.4V192A61.44 61.44 0 0 1 281.6 130.56z" fill="#8C929A" p-id="5211"></path></svg>