<?xml version="1.0" standalone="no"?><!DOCTYPE svg PUBLIC "-//W3C//DTD SVG 1.1//EN" "http://www.w3.org/Graphics/SVG/1.1/DTD/svg11.dtd"><svg t="1737862946647" class="icon" viewBox="0 0 1024 1024" version="1.1" xmlns="http://www.w3.org/2000/svg" p-id="9199" xmlns:xlink="http://www.w3.org/1999/xlink" width="200" height="200"><path d="M907.818667 838.200889c71.338667-86.357333 112.526222-194.787556 116.963555-306.631111L788.010667 538.168889c-4.778667 51.086222-23.438222 98.417778-52.337778 137.557333l172.145778 162.474667zM785.962667 470.129778l236.771555-6.599111c-1.479111-16.156444-3.868444-32.426667-6.940444-48.241778-19.228444-101.034667-68.039111-193.080889-140.856889-266.012445C786.759111 61.212444 670.592 8.647111 546.460444 0.113778v237.226666c123.107556 15.132444 220.956444 110.933333 239.502223 232.789334z" p-id="9200"></path><path d="M235.619556 512c0-141.425778 105.927111-258.048 242.801777-274.773333V0C354.403556 8.078222 237.895111 60.871111 149.831111 149.048889-49.962667 348.842667-49.962667 674.247111 149.944889 874.154667 340.295111 1064.504889 647.608889 1074.744889 849.564444 897.592889c3.868444-3.185778 7.623111-6.599111 11.491556-10.126222L688.910222 724.992c-47.900444 39.822222-109.568 63.601778-176.696889 63.601778C359.523556 788.707556 235.619556 664.917333 235.619556 512z" p-id="9201"></path></svg>