<?xml version="1.0" standalone="no"?><!DOCTYPE svg PUBLIC "-//W3C//DTD SVG 1.1//EN" "http://www.w3.org/Graphics/SVG/1.1/DTD/svg11.dtd"><svg t="1730687239652" class="icon" viewBox="0 0 1024 1024" version="1.1" xmlns="http://www.w3.org/2000/svg" p-id="4299" xmlns:xlink="http://www.w3.org/1999/xlink" width="200" height="200"><path d="M0 0h1024v1024H0z" fill="#FFFFFF" fill-opacity="0" p-id="4300"></path><path d="M204 372c66.31 0 121.852 46.1 136.326 108h137.53c12.901-33.907 45.71-58 84.144-58 38.435 0 71.243 24.093 84.145 58h139.71c12.902-33.907 45.71-58 84.145-58 49.706 0 90 40.294 90 90s-40.294 90-90 90c-38.434 0-71.242-24.092-84.144-57.998H646.144C633.242 577.908 600.434 602 562 602c-38.434 0-71.242-24.092-84.144-57.998h-137.53C325.852 605.9 270.309 652 204 652c-77.32 0-140-62.68-140-140s62.68-140 140-140z m0 64c-41.974 0-76 34.026-76 76s34.026 76 76 76 76-34.026 76-76-34.026-76-76-76z m358 50c-14.36 0-26 11.64-26 26s11.64 26 26 26 26-11.64 26-26-11.64-26-26-26z m308 0c-14.36 0-26 11.64-26 26s11.64 26 26 26 26-11.64 26-26-11.64-26-26-26z" fill="#666666" p-id="4301"></path></svg>