<?xml version="1.0" standalone="no"?><!DOCTYPE svg PUBLIC "-//W3C//DTD SVG 1.1//EN" "http://www.w3.org/Graphics/SVG/1.1/DTD/svg11.dtd"><svg t="1730950098862" class="icon" viewBox="0 0 1024 1024" version="1.1" xmlns="http://www.w3.org/2000/svg" p-id="4445" xmlns:xlink="http://www.w3.org/1999/xlink" width="200" height="200"><path d="M128 832a64 64 0 0 0 64 64h384v-64H192v-82.752l192-192 192 192v-90.496l-192-192-192 192V192h640v384h64V192a64 64 0 0 0-64-64H192a64 64 0 0 0-64 64v640z" p-id="4446"></path><path d="M640 512a128 128 0 1 0 0-256 128 128 0 0 0 0 256z m0-64a64 64 0 1 0 0-128 64 64 0 0 0 0 128z" p-id="4447"></path><path d="M832 1024v-128h-128v-64h128v-128h64v128h128v64h-128v128h-64z" p-id="4448"></path></svg>